# Blender v2.92.0 OBJ File: ''
# www.blender.org
mtllib CubeScene.mtl
o Plane.001
v -3.000000 6.000000 3.000000
v -3.000000 0.000000 3.000000
v -3.000000 6.000000 -3.000000
v -3.000000 0.000000 -3.000000
v -3.000000 0.000000 3.000000
v 3.000000 0.000000 3.000000
v -3.000000 0.000000 -3.000000
v 3.000000 0.000000 -3.000000
v 0.511549 0.300000 -0.850496
v 0.511549 1.700000 -0.850496
v 0.511549 0.300000 -2.250496
v 0.511549 1.700000 -2.250496
v 1.911550 0.300000 -0.850496
v 1.911550 1.700000 -0.850496
v 1.911550 0.300000 -2.250496
v 1.911550 1.700000 -2.250496
v -2.634508 2.116189 0.314654
v -2.634508 3.116189 0.314654
v -2.634508 2.116189 -0.685346
v -2.634508 3.116189 -0.685346
v -1.634508 2.116189 0.314654
v -1.634508 3.116189 0.314654
v -1.634508 2.116189 -0.685346
v -1.634508 3.116189 -0.685346
v -0.843187 0.815251 1.851013
v -0.843187 1.815251 1.851013
v -0.843187 0.815251 0.851013
v -0.843187 1.815251 0.851013
v 0.156813 0.815251 1.851013
v 0.156813 1.815251 1.851013
v 0.156813 0.815251 0.851013
v 0.156813 1.815251 0.851013
vt 1.000000 0.000000
vt 0.000000 1.000000
vt 0.000000 0.000000
vt 1.000000 0.000000
vt 0.000000 1.000000
vt 0.000000 0.000000
vt 0.625000 0.000000
vt 0.375000 0.250000
vt 0.375000 0.000000
vt 0.625000 0.250000
vt 0.375000 0.500000
vt 0.703989 0.023119
vt 0.386673 0.340435
vt 0.386673 0.023119
vt 0.023119 0.386673
vt 0.340435 0.703989
vt 0.023119 0.703989
vt 0.125000 0.750000
vt 0.125000 0.500000
vt 0.023119 0.023119
vt 0.340435 0.340435
vt 0.023119 0.340435
vt 0.625000 0.000000
vt 0.375000 0.250000
vt 0.375000 0.000000
vt 0.625000 0.250000
vt 0.375000 0.500000
vt 0.249773 0.750227
vt 0.023119 0.976881
vt 0.023119 0.750227
vt 0.659565 0.613327
vt 0.886219 0.386673
vt 0.886219 0.613327
vt 0.125000 0.750000
vt 0.125000 0.500000
vt 0.386673 0.659565
vt 0.613327 0.886220
vt 0.386673 0.886220
vt 0.625000 0.000000
vt 0.375000 0.250000
vt 0.375000 0.000000
vt 0.625000 0.250000
vt 0.375000 0.500000
vt 0.886219 0.659565
vt 0.659565 0.886220
vt 0.659565 0.659565
vt 0.750227 0.023119
vt 0.976881 0.249773
vt 0.750227 0.249773
vt 0.125000 0.750000
vt 0.125000 0.500000
vt 0.386673 0.386673
vt 0.613327 0.613327
vt 0.386673 0.613328
vt 1.000000 1.000000
vt 1.000000 1.000000
vt 0.625000 0.500000
vt 0.703989 0.340435
vt 0.340435 0.386673
vt 0.375000 0.750000
vt 0.340435 0.023119
vt 0.625000 0.500000
vt 0.249773 0.976881
vt 0.659565 0.386673
vt 0.375000 0.750000
vt 0.613327 0.659565
vt 0.625000 0.500000
vt 0.886220 0.886220
vt 0.976881 0.023119
vt 0.375000 0.750000
vt 0.613327 0.386673
vn 1.0000 -0.0000 0.0000
vn 0.0000 1.0000 0.0000
vn -1.0000 0.0000 0.0000
vn 0.0000 0.0000 -1.0000
vn 0.0000 0.0000 1.0000
vn 0.0000 -1.0000 0.0000
usemtl None
s off
f 2/1/1 3/2/1 1/3/1
f 6/4/2 7/5/2 5/6/2
f 10/7/3 11/8/3 9/9/3
f 12/10/4 15/11/4 11/8/4
f 16/12/1 13/13/1 15/14/1
f 14/15/5 9/16/5 13/17/5
f 15/11/6 9/18/6 11/19/6
f 12/20/2 14/21/2 16/22/2
f 18/23/3 19/24/3 17/25/3
f 20/26/4 23/27/4 19/24/4
f 24/28/1 21/29/1 23/30/1
f 22/31/5 17/32/5 21/33/5
f 23/27/6 17/34/6 19/35/6
f 20/36/2 22/37/2 24/38/2
f 26/39/3 27/40/3 25/41/3
f 28/42/4 31/43/4 27/40/4
f 32/44/1 29/45/1 31/46/1
f 30/47/5 25/48/5 29/49/5
f 31/43/6 25/50/6 27/51/6
f 28/52/2 30/53/2 32/54/2
f 2/1/1 4/55/1 3/2/1
f 6/4/2 8/56/2 7/5/2
f 10/7/3 12/10/3 11/8/3
f 12/10/4 16/57/4 15/11/4
f 16/12/1 14/58/1 13/13/1
f 14/15/5 10/59/5 9/16/5
f 15/11/6 13/60/6 9/18/6
f 12/20/2 10/61/2 14/21/2
f 18/23/3 20/26/3 19/24/3
f 20/26/4 24/62/4 23/27/4
f 24/28/1 22/63/1 21/29/1
f 22/31/5 18/64/5 17/32/5
f 23/27/6 21/65/6 17/34/6
f 20/36/2 18/66/2 22/37/2
f 26/39/3 28/42/3 27/40/3
f 28/42/4 32/67/4 31/43/4
f 32/44/1 30/68/1 29/45/1
f 30/47/5 26/69/5 25/48/5
f 31/43/6 29/70/6 25/50/6
f 28/52/2 26/71/2 30/53/2
